<svg xmlns="http://www.w3.org/2000/svg" xmlns:xlink="http://www.w3.org/1999/xlink" width="17.983" height="17.983" viewBox="0 0 17.983 17.983">
  <defs>
    <radialGradient id="radial-gradient" cx="0.5" cy="0.5" r="0.5" gradientUnits="objectBoundingBox">
      <stop offset="0" stop-color="#99d19f"/>
      <stop offset="1" stop-color="#8abb8f"/>
    </radialGradient>
  </defs>
  <g id="svgexport-17_59_" data-name="svgexport-17 (59)" transform="translate(-4 -4)">
    <path id="Path_22" data-name="Path 22" d="M21.646,9.283l-3.372,3.372a1.086,1.086,0,0,1-1.574,0,1.086,1.086,0,0,1,0-1.574L18.162,9.62H5.124A1.209,1.209,0,0,1,4,8.5,1.209,1.209,0,0,1,5.124,7.372H18.162L16.7,5.911a1.113,1.113,0,0,1,1.574-1.574l3.372,3.372A1.086,1.086,0,0,1,21.646,9.283Zm.337,8.2a1.209,1.209,0,0,1-1.124,1.124H7.821l1.461,1.461a1.086,1.086,0,0,1,0,1.574,1.086,1.086,0,0,1-1.574,0L4.337,18.274a1.086,1.086,0,0,1,0-1.574l3.372-3.372A1.113,1.113,0,0,1,9.283,14.9L7.821,16.364H20.859A1.209,1.209,0,0,1,21.983,17.488Z" fill="url(#radial-gradient)"/>
  </g>
</svg>
