<svg xmlns="http://www.w3.org/2000/svg" xmlns:xlink="http://www.w3.org/1999/xlink" width="25.146" height="22.002" viewBox="0 0 25.146 22.002">
  <defs>
    <radialGradient id="radial-gradient" cx="0.5" cy="0.5" r="0.5" gradientUnits="objectBoundingBox">
      <stop offset="0" stop-color="#99d19f"/>
      <stop offset="1" stop-color="#8abb8f"/>
    </radialGradient>
  </defs>
  <g id="svgexport-17_55_" data-name="svgexport-17 (55)" transform="translate(0 -0.008)">
    <path id="Path_17" data-name="Path 17" d="M9.429,10.485a5.239,5.239,0,1,1,5.239-5.238A5.244,5.244,0,0,1,9.429,10.485Zm0-8.905A3.667,3.667,0,1,0,13.1,5.247,3.671,3.671,0,0,0,9.429,1.58Zm8.644,20.43H.786A.786.786,0,0,1,0,21.224V17.557A4.982,4.982,0,0,1,4.977,12.58h8.906a4.982,4.982,0,0,1,4.977,4.977v3.667A.786.786,0,0,1,18.073,22.01Zm-16.5-1.572H17.287V17.557a3.409,3.409,0,0,0-3.4-3.4H4.977a3.409,3.409,0,0,0-3.4,3.4Zm22.788-9.691H15.454a.786.786,0,0,1,0-1.572h8.905a.786.786,0,0,1,0,1.572Zm0,0" transform="translate(0 0)" fill="url(#radial-gradient)"/>
    <path id="Path_18" data-name="Path 18" d="M395.457,111.26a.786.786,0,0,1-.555-1.342l3.636-3.636-3.636-3.636a.786.786,0,0,1,1.112-1.112l4.191,4.191a.786.786,0,0,1,0,1.112l-4.191,4.191A.781.781,0,0,1,395.457,111.26Zm0,0" transform="translate(-375.289 -96.322)" fill="url(#radial-gradient)"/>
  </g>
</svg>
