<svg xmlns="http://www.w3.org/2000/svg" width="23.894" height="25.571" viewBox="0 0 23.894 25.571">
  <g id="Profile" transform="translate(-2.66 -1.25)">
    <g id="Group_76637" data-name="Group 76637" transform="translate(2.66 1.25)">
      <path id="Path_25580" data-name="Path 25580" d="M13.089,14.927a6.839,6.839,0,1,1,6.839-6.839A6.847,6.847,0,0,1,13.089,14.927Zm0-11.893a5.055,5.055,0,1,0,5.055,5.055A5.066,5.066,0,0,0,13.089,3.034Zm4.543,23.787a1.672,1.672,0,0,1-1.189-.476,1.692,1.692,0,0,1-.452-1.463l.226-1.606a2.4,2.4,0,0,1,.607-1.213l4.21-4.21a2.508,2.508,0,0,1,3.9,0,2.8,2.8,0,0,1,.94,1.951,2.725,2.725,0,0,1-.94,1.939l-4.21,4.21a2.356,2.356,0,0,1-1.213.607l-1.606.226a1.08,1.08,0,0,1-.274.036Zm5.34-8.123c-.214,0-.4.143-.678.416l-4.21,4.21a.452.452,0,0,0-.1.2l-.214,1.487,1.487-.214a.661.661,0,0,0,.2-.107l4.21-4.21a1.234,1.234,0,0,0,.416-.678,1.126,1.126,0,0,0-.416-.69c-.285-.285-.5-.416-.7-.416Z" transform="translate(-1.98 -1.25)" fill="#8cbe91"/>
      <path id="Path_25581" data-name="Path 25581" d="M24.377,20.161a.767.767,0,0,1-.238-.036,4.73,4.73,0,0,1-3.259-3.259.889.889,0,0,1,1.713-.476,2.932,2.932,0,0,0,2.022,2.022.891.891,0,0,1-.238,1.748Zm-20.825,4.2a.9.9,0,0,1-.892-.892c0-5.078,4.983-9.217,11.108-9.217a13.341,13.341,0,0,1,3.782.547.888.888,0,0,1-.511,1.7,11.51,11.51,0,0,0-3.271-.476c-5.138,0-9.324,3.33-9.324,7.433a.9.9,0,0,1-.892.9Z" transform="translate(-2.66 1.211)" fill="#8cbe91"/>
    </g>
  </g>
</svg>
