<svg xmlns="http://www.w3.org/2000/svg" xmlns:xlink="http://www.w3.org/1999/xlink" width="25.598" height="21.651" viewBox="0 0 25.598 21.651">
  <defs>
    <radialGradient id="radial-gradient" cx="0.5" cy="0.5" r="0.5" gradientUnits="objectBoundingBox">
      <stop offset="0" stop-color="#99d19f"/>
      <stop offset="1" stop-color="#8abb8f"/>
    </radialGradient>
  </defs>
  <g id="svgexport-17_57_" data-name="svgexport-17 (57)" transform="translate(-0.001 -39.469)">
    <path id="Path_21" data-name="Path 21" d="M24.493,42.55a6.537,6.537,0,0,0-3.008-2.544,7.237,7.237,0,0,0-4.565-.306A9.763,9.763,0,0,0,12.8,41.956,9.762,9.762,0,0,0,8.68,39.7a7.233,7.233,0,0,0-4.565.307,6.537,6.537,0,0,0-3.008,2.545A7.515,7.515,0,0,0,0,46.726c.125,6.864,10.35,13.105,12.4,14.287a.8.8,0,0,0,.8,0c2.049-1.182,12.274-7.424,12.4-14.288A7.515,7.515,0,0,0,24.493,42.55ZM24,46.7c-.04,2.219-1.519,4.807-4.278,7.482a39.08,39.08,0,0,1-6.92,5.214,39.054,39.054,0,0,1-6.92-5.214C3.122,51.5,1.642,48.916,1.6,46.7a5.275,5.275,0,0,1,3.133-5.215A5.332,5.332,0,0,1,6.81,41.07a7.788,7.788,0,0,1,5.42,2.552.8.8,0,0,0,1.141,0c2.27-2.308,5.142-3.128,7.495-2.14A5.275,5.275,0,0,1,24,46.7Z" fill="url(#radial-gradient)"/>
  </g>
</svg>
