<svg xmlns="http://www.w3.org/2000/svg" width="122.418" height="104.942" viewBox="0 0 122.418 104.942">
  <g id="Group_76625" data-name="Group 76625" transform="translate(-1438 53)">
    <g id="Group_76362" data-name="Group 76362" transform="translate(1438 -53)">
      <g id="Group_76626" data-name="Group 76626">
        <path id="Path_2568" data-name="Path 2568" d="M127.085,97.155c-1.62,1.474-2.964,3.288-4.584,4.794-1.231,1.15-2.948,2.43-4.738,2.13-1.944-.324-3.1-2.5-4.171-3.944-2.017-2.713-4.681-5.458-8.414-4.584-2.608.607-4.309,2.826-5.872,4.859s-3.572,5.126-6.479,2.875c-2.729-2.122-4.511-5.361-7.969-6.479-4.973-1.62-8.787,2.664-12.253,5.434-1.9,1.523-4.252,2.956-6.106.656-.324-.4-.858-1.239-1.239-1.83-1.061-1.66-2.13-3.491-3.823-4.592-2.162-1.4-4.956-.939-7.094.219-2.389,1.3-4.357,3.41-6.268,5.313-1.49,1.49-2.924,3.037-4.438,4.511-1.871,1.822,1,4.689,2.867,2.867,1.28-1.255,2.5-2.567,3.766-3.839a36.608,36.608,0,0,1,5.143-4.754c1-.688,2.43-1.531,3.7-.988,1.45.615,2.268,2.64,3.077,3.879a11.046,11.046,0,0,0,3.491,3.8c2.106,1.19,4.624.753,6.7-.259a29.048,29.048,0,0,0,5.6-4.26c1.393-1.182,3.239-2.681,5.224-2.43,1.344.17,2.381,1.182,3.434,2.235a42.541,42.541,0,0,0,3.555,3.49,7.5,7.5,0,0,0,4.924,1.879,7.378,7.378,0,0,0,4.551-2.017,24.46,24.46,0,0,0,2.964-3.426c.915-1.158,2.106-3.029,3.7-3.239,1.231-.17,2.211.81,2.948,1.676a18.016,18.016,0,0,1,1.255,1.62c2.308,3.167,5.207,6.584,9.613,5.321,4.228-1.215,6.722-5.248,9.832-8.034C131.888,98.313,129.021,95.422,127.085,97.155Z" transform="translate(-8.189 -18.136)" fill="#84B289"/>
        <path id="Path_2569" data-name="Path 2569" d="M14.474,107.1a2.6,2.6,0,0,0,2.017-1.134,8.18,8.18,0,0,0,1.693-5.75c-.437-4.2-3.41-7.289-7.289-8.706C7.469,90.3,3.055,90.838.974,94.126c-2.251,3.572-.267,8.3,2.948,10.528a16.821,16.821,0,0,0,9.54,2.527A4.411,4.411,0,0,0,14.474,107.1Zm-2.916-3.968c-.518-.1-.988-.2-1.182-.243a13.346,13.346,0,0,1-3.037-.948,6,6,0,0,1-2.43-1.96c-.875-1.271-1.288-3.239.17-4.317a5.126,5.126,0,0,1,4.138-.421,6.6,6.6,0,0,1,4.608,3.9,4.487,4.487,0,0,1-.283,3.985C13.389,103.4,12.4,103.286,11.559,103.132Z" transform="translate(-0.01 -17.287)" fill="#84B289"/>
        <path id="Path_2570" data-name="Path 2570" d="M6.547,86.954A3.037,3.037,0,1,0,3.51,83.917a3.037,3.037,0,0,0,3.037,3.037Z" transform="translate(-0.675 -15.378)" fill="#84B289"/>
        <path id="Path_2571" data-name="Path 2571" d="M18.287,88.574a3.037,3.037,0,1,0-3.037-3.037A3.069,3.069,0,0,0,18.287,88.574Z" transform="translate(-2.907 -15.686)" fill="#84B289"/>
        <path id="Path_2572" data-name="Path 2572" d="M38.519,95.985a2.065,2.065,0,0,0-2.859,0c-8.722,7.07-15.541,16.1-23.81,23.68-1.927,1.765.948,4.624,2.867,2.867,8.261-7.556,15.072-16.61,23.794-23.68a2.041,2.041,0,0,0,.008-2.867Z" transform="translate(-2.14 -18.141)" fill="#84B289"/>
      </g>
      <path id="Path_2573" data-name="Path 2573" d="M76.125,23.146A25.664,25.664,0,0,0,71.4,9.807c-1.1-1.563-2.656-3.515-.753-5.159,1.231-.915,2.511-2.43,1.838-3.92A1.158,1.158,0,0,0,71.468,0a2.26,2.26,0,0,0-1.118.429,4.1,4.1,0,0,0-1.5,2.219,7.289,7.289,0,0,0-.1,3.239.211.211,0,0,0,0,.073,3.4,3.4,0,0,0,0,1.4c.348,1.49,1.62,2.721,2.43,3.976a24.766,24.766,0,0,1,3.588,9.119A23.429,23.429,0,0,1,73.9,31.22c-1,3.482-2.081,6.876-2.754,10.447-.34,1.822-.624,3.661-.858,5.5-.081-2.179-.154-4.357-.292-6.528a32.768,32.768,0,0,0-1.142-7.175.648.648,0,0,0-.065-.227v-.1c-.121-.413-.259-.81-.413-1.231a3.636,3.636,0,0,1-.073-1.531,8.746,8.746,0,0,1,1.3-2.43,12.958,12.958,0,0,0,1.62-4.859A13.29,13.29,0,0,0,69.257,14.5a8.228,8.228,0,0,0-3.3-3.013c-.939-.429-2.478-.624-2.98.559s.721,2.049,1.693,2.43c1.62.575,3.45.7,4.568,2.187a12.455,12.455,0,0,1,.6,1.7,11.994,11.994,0,0,1-.794,8.431,23.4,23.4,0,0,0-1.62,2.956c-.081-.146-.146-.3-.227-.454a24.838,24.838,0,0,0-4.632-6.106v-.04a14.95,14.95,0,0,1-4.5-7.815,11.969,11.969,0,0,1,.089-4.859,20.641,20.641,0,0,0,.316-2.106.381.381,0,0,0,0-.283,6.8,6.8,0,0,0-.138-1.855A4.252,4.252,0,0,0,56.235,3.32a1.87,1.87,0,0,0-2.624.648,1.871,1.871,0,0,0,.81,2.138c1,.761,2.235,1.223,3.029,2.243-.1,1.15-.4,2.284-.543,3.426a10.043,10.043,0,0,0-.081,1.393,16.756,16.756,0,0,0-5.985-4.859h0A2.162,2.162,0,0,0,50.25,8.1L49.8,7.888c-1.676-.7-3.887-1.5-5.669-.615-.632.316-1.255.988-.988,1.741a1.8,1.8,0,0,0,1.62,1A6.489,6.489,0,0,0,47.65,9.2a3.588,3.588,0,0,1,2.243-.13,15.485,15.485,0,0,1,7.038,6.2,14.578,14.578,0,0,0,1.822,4.859l-.105-.081A22.757,22.757,0,0,0,52.226,16.8c-1.425-.4-4.284-.373-4.543,1.62-.308,2.43,3.547,2.332,4.948,2.146a12.958,12.958,0,0,1,3.58-.146A8.3,8.3,0,0,1,59.45,21.9l.283.211a24.863,24.863,0,0,1,6.536,7.775,18.125,18.125,0,0,0-6.714-4.4c-1.9-.7-4.56-1.466-6.479-.559-1.571.729-2.057,2.713-.243,3.474,2.575,1.085,4.689-1.231,7.078-1.7a16.076,16.076,0,0,1,7.945,7,32.143,32.143,0,0,1,1.182,7.232c.178,2.851.251,5.71.373,8.568a14.2,14.2,0,0,0-2.8-4.292.494.494,0,0,0-.057-.081,11.419,11.419,0,0,1-2.1-2.907,12.837,12.837,0,0,1-.81-3.572c-.34-2.2-1.045-4.284-2.851-5.669-1.417-1.11-3.6-1.83-5.313-.964a1.62,1.62,0,0,0-.931,1.814c.243.915,1.239,1.482,2.033,1.871a30.105,30.105,0,0,0,2.988,1.118,7.953,7.953,0,0,1,3.069,1.976c.073.445.138.9.2,1.336a9.524,9.524,0,0,0,.81,2.681,25.762,25.762,0,0,0-6.762-2.956,6.148,6.148,0,0,0-1.11-.316c-.462-.13-.931-.243-1.393-.348l-.551-.121c-3.329-1.288-6.244-3.725-9.224-5.612l-.939-.567h0A5.726,5.726,0,0,1,41.5,27.9c.186-1.83.81-3.588.615-5.386a.673.673,0,0,0,0-.178.808.808,0,0,1,0-.081,5.6,5.6,0,0,0-.283-1.142,5.928,5.928,0,0,0-3.879-3.5,2.583,2.583,0,0,0-2.535.364,1.215,1.215,0,0,0,.2,1.838c1.547,1.312,4.859.219,5.531,2.729.283,2.179-.867,4.284-.64,6.479a6.536,6.536,0,0,0,.81,2.5c-.235-.1-.462-.194-.7-.267l-.907-.4c-1.7-.7-3.434-1.466-5.183-2.008-1.1-.348-2.826-.429-3.491.761-.575,1.029.332,1.96,1.288,2.251,1.442.429,3.061,0,4.527-.073a10.634,10.634,0,0,1,3.15.332A47.29,47.29,0,0,1,46.492,35.8c1.3.867,2.592,1.782,3.944,2.592a48.593,48.593,0,0,0-8.908-.518c-2.049.073-4.341.13-6.2,1.069-1.142.575-2.114,1.838-1.19,3.053s3.158,1.361,4.511.81c1.676-.68,2.43-2.43,3.28-3.936h3.418a49.735,49.735,0,0,1,6.479.737,15.055,15.055,0,0,0-2.7.9c-2.835,1.231-5.062,3.345-7.637,4.989a13.969,13.969,0,0,1-1.442.81c-1.879.81-3.086-.283-4.859-.68-.939-.2-2.43-.105-2.956.85s.364,1.8,1.239,2.073a7.912,7.912,0,0,0,4.357-.227,13.905,13.905,0,0,0,2.6-1.069l.243-.1a.389.389,0,0,0,.178-.138c2.033-1.134,3.847-2.648,5.8-3.968,2.494-1.676,5.8-3.2,8.908-2.648l1.288.364h0A21.494,21.494,0,0,1,65.564,45.4a12.869,12.869,0,0,1,2.373,3.061,19.145,19.145,0,0,0-6.4-3.239,18.125,18.125,0,0,0-9.467.713c-1.741.575-6.05,2.138-4.689,4.746a2.43,2.43,0,0,0,2.592,1.15A4.341,4.341,0,0,0,52.841,49.3,6.009,6.009,0,0,1,55.7,46.429a6.536,6.536,0,0,1,2.195-.437h.324a15.655,15.655,0,0,1,2.146.154.405.405,0,0,0,.146,0c3.069.494,5.726,2.486,8.2,4.268a17.469,17.469,0,0,1,.47,9.9c-.583,2.608-2.179,4.722-4.973,5.11a44.822,44.822,0,0,1-5.71.243q-9.05.109-18.109-.211a.51.51,0,0,0,0,1.012c6.22.194,12.456.3,18.675.2a28.928,28.928,0,0,0,5.863-.348c3.239-.753,4.859-3.442,5.386-6.536a20.919,20.919,0,0,0,.292-5,.453.453,0,0,0,.057-.275A86.064,86.064,0,0,1,74.4,33.059C75.4,29.86,76.327,26.531,76.125,23.146ZM71.468,1.012Zm-.9.535a2.017,2.017,0,0,1,.6-.429,1.879,1.879,0,0,1,.3-.105.615.615,0,0,1,.073.073c.332.478,0,1.158-.292,1.571A5.531,5.531,0,0,1,69.63,4.13a3.9,3.9,0,0,1,.923-2.583ZM65.864,13.695a5.815,5.815,0,0,1-1.174-.364,1.9,1.9,0,0,1-.615-.364c0-.672.178-.939.615-.81,1.166-.089,2.5,1.263,3.239,2.235-.154-.073-.308-.154-.462-.219a11.233,11.233,0,0,0-1.62-.486ZM44.807,9.03c-.607-.089-.81-.454-.219-.81a4.163,4.163,0,0,1,3.061,0c-.494.17-.964.389-1.474.591a2.754,2.754,0,0,1-1.393.211ZM56.259,6.114c-.389-.251-.81-.462-1.182-.745-.6-.454-.81-1.377.324-1.231s1.838,1.62,2.017,2.794a10.642,10.642,0,0,0-1.182-.826Zm.389,20.854a4.121,4.121,0,0,1-3.288.535c-.721-.292-.858-.85-.259-1.377a2.94,2.94,0,0,1,1.846-.567,11.12,11.12,0,0,1,3.45.567h0c-.615.243-1.191.543-1.774.834Zm-6.957-7.532c-.745-.275-1.377-.972-.413-1.555a2.843,2.843,0,0,1,1.547-.34,8.909,8.909,0,0,1,3.507,1.142c.421.2.81.421,1.255.648C53.651,19.267,51.521,20.133,49.691,19.437ZM36.733,19.3c-.4-.13-.907-.615-.259-.81a3.11,3.11,0,0,1,2.041.454,5.078,5.078,0,0,1,1.433,1.118,9.605,9.605,0,0,0-2.243-.567,4.908,4.908,0,0,1-.98-.178Zm-3.928,11.67c-.308-.065-1.134-.3-.939-.81s.956-.51,1.344-.5a7.289,7.289,0,0,1,2.43.745l1.093.421c-.559,0-1.126.057-1.693.113A7.491,7.491,0,0,1,32.805,30.969Zm5.3,10.974c-.81.3-4.357.073-3.15-1.523.939-1.239,3.45-1.312,4.859-1.425l.883-.049C40.086,40.145,39.4,41.481,38.1,41.943Zm-5.037,5.07c.243-.7,1.976-.283,2.373-.154.575.194,1.118.47,1.693.656h0c-.4.105-4.535.769-4.066-.5ZM59.021,35.537a12.957,12.957,0,0,1-2.43-.98c-.664-.381-1.709-1.247-.543-1.733,1.676-.688,3.693.364,4.811,1.62a6.479,6.479,0,0,1,1.409,2.721,11.338,11.338,0,0,0-3.248-1.628ZM53.53,46.64a7.889,7.889,0,0,0-.964,1.142,10.99,10.99,0,0,1-1.555,2.43c-.745.656-1.936,1.069-2.656.332-.867-.883.324-1.855,1.045-2.284a15.233,15.233,0,0,1,4.252-1.733C53.651,46.567,53.578,46.6,53.53,46.64Z" transform="translate(-5.877)" fill="#84B289"/>
      <path id="Path_2574" data-name="Path 2574" d="M116,32.146a10.471,10.471,0,0,1,3.126-.332c1.466,0,3.086.5,4.527.073.956-.292,1.871-1.223,1.3-2.251-.672-1.19-2.389-1.11-3.5-.761-1.749.543-3.482,1.312-5.175,2.008-.308.121-.607.259-.907.4a7.286,7.286,0,0,0-.7.267,6.657,6.657,0,0,0,.81-2.5c.235-2.211-.923-4.317-.64-6.479.567-2.195,3.369-1.676,4.964-2.381.656-.283,1.344-.964,1.061-1.741a1.951,1.951,0,0,0-2.033-.964,5.791,5.791,0,0,0-4.373,3.013,5.369,5.369,0,0,0-.575,1.766v.1a.4.4,0,0,0,0,.219,14.019,14.019,0,0,0,.429,4.236,5.79,5.79,0,0,1-.113,3.361,5.9,5.9,0,0,1-1.919,2.713h0c-.316.186-.632.373-.939.567-2.964,1.879-5.863,4.3-9.168,5.588-.729.154-1.45.324-2.162.518a1.156,1.156,0,0,0-.275.073,27.949,27.949,0,0,0-6.625,2.689l-.729.454a7.24,7.24,0,0,0,.551-1.83c.138-.713.227-1.442.34-2.17a7.759,7.759,0,0,1,2.664-1.83c.867-.348,1.782-.575,2.648-.931,1.263-.51,4.049-2.1,2.308-3.7-1.361-1.247-3.766-.64-5.151.211a7.5,7.5,0,0,0-3.239,5.062c-.057.251-.1.51-.138.81a.179.179,0,0,1,0,.065,17.51,17.51,0,0,1-.615,3.239,10.042,10.042,0,0,1-2.332,3.458v.04a13.946,13.946,0,0,0-2.713,3.879l-.1.243c.089-2.292.154-4.584.275-6.868a37.513,37.513,0,0,1,1.182-8.69A16.068,16.068,0,0,1,96,26.728c2.195.429,3.96,2.324,6.333,1.919a2.3,2.3,0,0,0,1.871-1.3,1.83,1.83,0,0,0-.721-1.992c-1.676-1.377-4.438-.713-6.309-.138a17.947,17.947,0,0,0-5.6,2.94,17.138,17.138,0,0,0-2.008,1.806,24.231,24.231,0,0,1,4.56-6.074h0c.316-.316.64-.615.98-.907s.81-.721,1.28-1.053a8.1,8.1,0,0,1,5.467-1.555c1.846.146,4.7.98,6.033-.875s-1.369-3-2.794-2.956c-2.195.065-4.446,1.409-6.285,2.486-.583.34-1.15.713-1.7,1.093a14.747,14.747,0,0,0,1.83-4.859,15.387,15.387,0,0,1,6.754-6.058,3.239,3.239,0,0,1,2.179-.121,19.183,19.183,0,0,0,2.583.939,2.43,2.43,0,0,0,2.049-.583,1.247,1.247,0,0,0-.2-1.79c-1.425-1.312-3.871-.624-5.45,0-.413.154-.81.324-1.223.51h0l-.121.057a2.488,2.488,0,0,0-.364.162h0a18.481,18.481,0,0,0-3.191,1.968,15.865,15.865,0,0,0-2.778,2.835,11.391,11.391,0,0,0-.081-1.393c-.154-1.15-.445-2.276-.543-3.434.81-1.012,2.025-1.474,3.021-2.235a1.879,1.879,0,0,0,.81-2.138,1.879,1.879,0,0,0-2.632-.648,4.219,4.219,0,0,0-2.081,2.916,6.479,6.479,0,0,0-.138,1.855.381.381,0,0,0,0,.283,18.578,18.578,0,0,0,.275,2.138,11.97,11.97,0,0,1,.1,4.859,15,15,0,0,1-4.5,7.815v.049a26.238,26.238,0,0,0-3.79,4.665q-.567.939-1.045,1.9A20.563,20.563,0,0,0,87,27.012a11.937,11.937,0,0,1-.81-8.674,12.958,12.958,0,0,1,.591-1.7c1.126-1.49,2.956-1.62,4.568-2.187.98-.34,2.2-1.19,1.693-2.43s-2.033-.988-2.98-.559a8.155,8.155,0,0,0-3.3,3.013A13.29,13.29,0,0,0,84.8,23.06a12.78,12.78,0,0,0,1.62,4.859,8.722,8.722,0,0,1,1.3,2.43,3.685,3.685,0,0,1-.065,1.514A26.127,26.127,0,0,0,86.1,38.949c-.219,2.713-.316,5.434-.413,8.163-.17-1.32-.356-2.632-.575-3.944a86.654,86.654,0,0,0-2.7-10.553c-1.069-3.5-1.927-6.973-1.5-10.658a24.474,24.474,0,0,1,3.118-9.492c1.077-1.871,3.45-4.308,3.142-6.544a.122.122,0,0,0,0-.057,7.937,7.937,0,0,0,0-2.867A4.365,4.365,0,0,0,85.922.659C85.306.165,84.3-.362,83.67.391a2.26,2.26,0,0,0,0,2.551,5.839,5.839,0,0,0,1.62,1.717c1.62,1.425.672,3.175-.373,4.608a28.573,28.573,0,0,0-2.47,4,25.729,25.729,0,0,0-2.47,8.52,24.466,24.466,0,0,0,1.15,9.872c.98,3.361,2.008,6.649,2.664,10.091a87.691,87.691,0,0,1,1.466,12.755.527.527,0,0,0,.049.17,18.817,18.817,0,0,0,0,2.786c.243,2.883.81,6.147,3.41,7.864,1.83,1.207,3.952,1.215,6.058,1.28,6.908.219,13.849.065,20.757-.154a.51.51,0,0,0,0-1.012q-8.026.259-16.068.227c-2.235,0-4.479,0-6.706-.162a6.043,6.043,0,0,1-5.369-3.239,16.472,16.472,0,0,1-1.053-8,14.164,14.164,0,0,1,.81-3.806c2.551-1.806,5.2-3.823,8.293-4.292a.421.421,0,0,0,.146,0c2.567-.324,5.118-.2,6.811,1.992.883,1.15,1.247,2.6,2.616,3.329a2.915,2.915,0,0,0,3.1-.073A2.041,2.041,0,0,0,108.6,48.8c-.68-1.182-2.13-1.8-3.337-2.3A19.728,19.728,0,0,0,95.6,45.1c-2.81.34-5.264,1.871-7.524,3.491a12.061,12.061,0,0,1,1.02-1.539c2.43-3.118,6-5.013,9.848-6.2a.389.389,0,0,0,.3,0c3.418-1.344,7.329.364,10.172,2.284,1.952,1.32,3.774,2.835,5.807,3.968a.389.389,0,0,0,.178.138l.235.1a14.213,14.213,0,0,0,2.608,1.069,7.88,7.88,0,0,0,4.349.227c.883-.275,1.814-1.085,1.247-2.073s-2.017-1.053-2.964-.85c-1.806.4-3.021,1.466-4.859.68-.494-.259-.972-.526-1.442-.81-2.567-1.62-4.8-3.758-7.629-4.989a16.109,16.109,0,0,0-2.851-.915c1.207-.2,2.43-.356,3.563-.486a48.259,48.259,0,0,1,6.4-.267c.745,1.352,1.425,2.891,2.81,3.7a4.535,4.535,0,0,0,4.26,0,1.838,1.838,0,0,0,.7-2.762c-.891-1.182-2.729-1.547-4.09-1.725a43.49,43.49,0,0,0-12.148.283c1.3-.81,2.559-1.676,3.814-2.5A47.667,47.667,0,0,1,116,32.146Zm6.479-2.43c.4,0,1.45-.073,1.62.47s-.664.81-.948.81a6.8,6.8,0,0,1-2.065,0c-.64-.065-1.28-.113-1.919-.13a12.222,12.222,0,0,1,3.3-1.19Zm-5.054-10.763a3.077,3.077,0,0,1,2.041-.454c.559.17.251.632-.138.81a4.527,4.527,0,0,1-1.085.219,9.565,9.565,0,0,0-2.251.567A5.078,5.078,0,0,1,117.426,18.954ZM94.612,34.973a5.094,5.094,0,0,1,4.681-2.292c.81.13,1.555.64.745,1.385a7.191,7.191,0,0,1-2.543,1.288,23.049,23.049,0,0,0-2.43.875,7.435,7.435,0,0,0-1.442.875A6.552,6.552,0,0,1,94.612,34.973Zm6.422-9.419a3.239,3.239,0,0,1,1.725.462c.6.429.737,1.069,0,1.417a3.939,3.939,0,0,1-3.418-.47,18.737,18.737,0,0,0-1.749-.81h0A10.836,10.836,0,0,1,101.034,25.554Zm10.2-17.4c.211.1.7.308.526.624-.073.146-.356.194-.5.227a2.575,2.575,0,0,1-1.474-.211c-.51-.2-.98-.421-1.474-.591A4.422,4.422,0,0,1,111.238,8.158ZM100.362,4.174c1.2-.4,1.231.656.518,1.19-.364.283-.81.494-1.174.745a9.782,9.782,0,0,0-1.166.81A3.175,3.175,0,0,1,100.362,4.174Zm6.293,13.768c1.069.648.227,1.344-.543,1.62a4.859,4.859,0,0,1-1.96.154,34.6,34.6,0,0,0-3.539-.316h-.292c1.717-.988,4.454-2.632,6.333-1.5ZM91.016,12.151c.81-.162,1.166.672.478,1.061a5.029,5.029,0,0,1-1.247.421,12.415,12.415,0,0,0-1.782.51l-.535.259a5.313,5.313,0,0,1,3.086-2.251ZM84.335,1.258a.51.51,0,0,1,.154-.251h0l.121.04a1.96,1.96,0,0,1,.656.389,3.442,3.442,0,0,1,.948,1.749,4.584,4.584,0,0,1,.113.939,5.84,5.84,0,0,1-1.49-1.288,1.814,1.814,0,0,1-.5-1.579ZM106.541,48.23c.713.429,1.911,1.4,1.045,2.284-.721.737-2.025.251-2.664-.332a14.077,14.077,0,0,1-1.555-2.43,7.888,7.888,0,0,0-.964-1.118l-.146-.113a15.282,15.282,0,0,1,4.284,1.709Zm13.93-1.369c.413-.138,2.138-.559,2.373.154.421,1.271-3.62.615-4.049.5h0C119.377,47.331,119.928,47.056,120.471,46.861Zm-.535-7.1c.753.332,1.8,1.118.81,1.887a3.361,3.361,0,0,1-2.478.421c-1.62-.283-2.389-1.782-3.1-3.134a12.626,12.626,0,0,1,4.8.826Z" transform="translate(-15.196 -0.003)" fill="#84B289"/>
    </g>
  </g>
</svg>
